{
  "title": "Jane the Virgin Season 2 S02 ~{KiNg}",
  "uid": 14974322,
  "size": 8969035857,
  "categoryP": "video",
  "categoryS": "hd___tv_shows",
  "magnet": "?xt=urn:btih:a997ffcd52e58796bbaa50e5c9ae0734a0394453&amp;dn=Jane+the+Virgin+Season+2+S02+%7E%7BKiNg%7D&amp;tr=udp%3A%2F%2Ftracker.leechers-paradise.org%3A6969&amp;tr=udp%3A%2F%2Fzer0day.ch%3A1337&amp;tr=udp%3A%2F%2Fopen.demonii.com%3A1337&amp;tr=udp%3A%2F%2Ftracker.coppersurfer.tk%3A6969&amp;tr=udp%3A%2F%2Fexodus.desync.com%3A6969",
  "seeders": 107,
  "leechers": 39,
  "uploader": "Uplaoderking",
  "files": 22,
  "time": 1466223716,
  "description": "General\r\nFormat : Matroska\r\nFormat version : Version 4 / Version 2\r\nFile size : 389 MiB\r\nDuration : 42mn 0s\r\nOverall bit rate : 1 294 Kbps\r\nEncoded date : UTC 2016-06-18 01:05:38\r\n\r\nVideo\r\nID : 1\r\nFormat : AVC\r\nFormat/Info : Advanced Video Codec\r\nFormat profile :   \r\nFormat settings, CABAC : Yes\r\nFormat settings, ReFrames : 4 frames\r\nCodec ID : V_MPEG4/ISO/AVC\r\nDuration : 42mn 0s\r\nBit rate : 1 068 Kbps\r\nWidth : 1 280 pixels\r\nHeight : 720 pixels\r\nDisplay aspect ratio : 16:9\r\nFrame rate mode : Constant\r\nFrame rate : 23.976 (24000/1001) fps\r\nColor space : YUV\r\nChroma subsampling : 4:2:0\r\nBit depth : 8 bits\r\nScan type : Progressive\r\nBits/(Pixel*Frame) : 0.048\r\nStream size : 321 MiB (83%)\r\nWriting library : x264 core 148 r2692 64f4e24\r\n\r\nAudio\r\nID : 2\r\nFormat : AC-3\r\nFormat/Info : Audio Coding 3\r\nMode extension : CM (complete main)\r\nFormat settings, Endianness : Big\r\nCodec ID : A_AC3\r\nDuration : 42mn 0s\r\nBit rate mode : Constant\r\nBit rate : 224 Kbps\r\nChannel(s) : 6 channels\r\nChannel positions : Front: L C R, Side: L R, LFE\r\nSampling rate : 48.0 KHz\r\nFrame rate : 31.250 fps (1536 spf)\r\nCompression mode : Lossy\r\nStream size : 67.3 MiB (17%)\r\nLanguage : English\r\nDefault : No\r\nForced : No\r\n\r\nText\r\nID : 3\r\nFormat : UTF-8\r\nCodec ID : S_TEXT/UTF8\r\nCodec ID/Info : UTF-8 Plain Text\r\nDuration : 41mn 54s\r\nBit rate : 88 bps\r\nCount of elements : 1004\r\nStream size : 27.1 KiB (0%)\r\nDefault : No\r\nForced : No",
  "parsed": {
    "xt": "urn:btih:a997ffcd52e58796bbaa50e5c9ae0734a0394453",
    "dn": "Jane the Virgin Season 2 S02 ~{KiNg}",
    "tr": [
      "udp://exodus.desync.com:6969",
      "udp://open.demonii.com:1337",
      "udp://tracker.coppersurfer.tk:6969",
      "udp://tracker.leechers-paradise.org:6969",
      "udp://zer0day.ch:1337"
    ],
    "infoHash": "a997ffcd52e58796bbaa50e5c9ae0734a0394453",
    "infoHashBuffer": {
      "type": "Buffer",
      "data": [
        169,
        151,
        255,
        205,
        82,
        229,
        135,
        150,
        187,
        170,
        80,
        229,
        201,
        174,
        7,
        52,
        160,
        57,
        68,
        83
      ]
    },
    "name": "Jane the Virgin Season 2 S02 ~{KiNg}",
    "announce": [
      "udp://exodus.desync.com:6969",
      "udp://open.demonii.com:1337",
      "udp://tracker.coppersurfer.tk:6969",
      "udp://tracker.leechers-paradise.org:6969",
      "udp://zer0day.ch:1337"
    ],
    "urlList": []
  },
  "previous": 146,
  "peers": 101,
  "last_updated": "2016-12-25T10:30:52.386Z"
}